# xmcd
#
# Track frame offsets:
#	150
#	14489
#	34460
#	46065
#	60269
#	71966
#	89585
#	101263
#	116640
#	130255
#	144211
#	160504
#	177448
#	187039
#	219581
#
# Disc length: 3548 seconds
#
# Revision: 0
# Processed by: cddbd v1.5.1PL0 Copyright (c) Steve Scherf et al.
# Submitted via: dBpowerAMP V4.0
#
DISCID=d20dda0f
DTITLE=Antonio Aráez - Hay canciones
DYEAR=2003
DGENRE=Acoustic
TTITLE0=01. El no a la soledad
TTITLE1=02. Hay canciones
TTITLE2=03. A veces
TTITLE3=04. Por qué empecé
TTITLE4=05. Siento
TTITLE5=06. No me sobra nada
TTITLE6=07. Ahora
TTITLE7=08. Sin querer
TTITLE8=09. El dolor de no ser yo
TTITLE9=10. Soy
TTITLE10=11. Vuelas
TTITLE11=12. No ha cambiado tanto
TTITLE12=13. Cachito
TTITLE13=14. Vuelvo
TTITLE14=DATA
EXTD=
EXTT0=
EXTT1=
EXTT2=
EXTT3=
EXTT4=
EXTT5=
EXTT6=
EXTT7=
EXTT8=
EXTT9=
EXTT10=
EXTT11=
EXTT12=
EXTT13=
EXTT14=
PLAYORDER=
